<svg xmlns="http://www.w3.org/2000/svg" viewBox="0 0 64 64"><title>Artboard-7</title><g id="telephone"><path d="M63.7617,18.3521C55.0947,8.165,44.4087,3,32,3S8.9038,8.165.2383,18.3521a1,1,0,0,0-.0122,1.2812l9,11a.997.997,0,0,0,.7241.3652.9865.9865,0,0,0,.7568-.2915l7-7A1,1,0,0,0,18,23V16.6934A43.2091,43.2091,0,0,1,32,14a43.2091,43.2091,0,0,1,14,2.6934V23a1,1,0,0,0,.293.707l7,7A1,1,0,0,0,54,31q.0249,0,.05-.0015a.997.997,0,0,0,.7241-.3652l9-11A1,1,0,0,0,63.7617,18.3521Z" style="fill:#1b1b1e"/><path d="M32,34A10,10,0,1,0,42,44,10.0111,10.0111,0,0,0,32,34Zm0,2a1,1,0,1,1-1,1A1,1,0,0,1,32,36Zm-5.6569,2.3431a1,1,0,1,1,0,1.4142A1,1,0,0,1,26.3431,38.3431ZM25,45a1,1,0,1,1,1-1A1,1,0,0,1,25,45Zm2.7574,4.6569a1,1,0,1,1,0-1.4143A1,1,0,0,1,27.7574,49.6569ZM32,52a1,1,0,1,1,1-1A1,1,0,0,1,32,52Zm0-4a4,4,0,1,1,4-4A4.0045,4.0045,0,0,1,32,48Zm5.6569,1.6569a1,1,0,1,1,0-1.4143A1,1,0,0,1,37.6569,49.6569Zm0-9.9a1,1,0,1,1,0-1.4142A1,1,0,0,1,37.6569,39.7573ZM40,44a1,1,0,1,1-1-1A1,1,0,0,1,40,44Z" style="fill:#1b1b1e"/><circle cx="32" cy="44" r="2" style="fill:#1b1b1e"/><path d="M43,27.5859V20.41a1,1,0,0,0-.748-.9678,46.4433,46.4433,0,0,0-6.1329-1.1753A1,1,0,0,0,35,19.26V25a2.002,2.002,0,0,1-2,2H31a2.002,2.002,0,0,1-2-2V19.26a1,1,0,0,0-1.1191-.9927,46.4433,46.4433,0,0,0-6.1329,1.1753A1,1,0,0,0,21,20.41v7.1757L10.4668,38.1191A4.9748,4.9748,0,0,0,9,41.66V56a5.0059,5.0059,0,0,0,5,5H50a5.0059,5.0059,0,0,0,5-5V41.66a4.9748,4.9748,0,0,0-1.4668-3.5411ZM32,56A12,12,0,1,1,44,44,12.0137,12.0137,0,0,1,32,56Z" style="fill:#1b1b1e"/></g></svg>